<svg xmlns="http://www.w3.org/2000/svg" xmlns:xlink="http://www.w3.org/1999/xlink" width="500" zoomAndPan="magnify" viewBox="0 0 375 374.999991" height="500" preserveAspectRatio="xMidYMid meet" version="1.0"><path fill="#c6a785" d="M 295.003906 170.753906 C 319.597656 141.445312 321.421875 106.515625 301.59375 89.875 C 281.761719 73.238281 247.679688 81.097656 223.085938 110.40625 C 209.976562 126.027344 202.753906 143.941406 201.863281 159.792969 L 201.304688 159.726562 C 201.277344 159.988281 198.582031 186.003906 194.964844 197.003906 C 192.144531 205.601562 186.984375 214.980469 184.839844 218.714844 L 183.570312 217.648438 L 139.058594 270.691406 L 134.761719 271.457031 L 130.960938 275.988281 L 148.304688 290.539062 L 152.402344 285.65625 L 151.964844 280.757812 L 196.097656 228.164062 L 195.066406 227.296875 C 198.367188 224.535156 206.722656 217.832031 214.6875 213.554688 C 224.890625 208.082031 250.042969 200.910156 250.304688 200.839844 L 250.125 200.207031 C 265.554688 196.578125 281.914062 186.355469 295.003906 170.753906 Z M 227.992188 114.523438 C 228.804688 113.558594 229.644531 112.675781 230.46875 111.761719 L 233.769531 114.53125 L 226.683594 122.976562 L 223.519531 120.320312 C 224.925781 118.363281 226.402344 116.421875 227.992188 114.523438 Z M 228.691406 124.664062 L 235.777344 116.21875 L 244.21875 123.300781 L 237.132812 131.746094 Z M 235.445312 133.757812 L 228.355469 142.207031 L 219.914062 135.121094 L 227.003906 126.671875 Z M 237.460938 114.210938 L 244.546875 105.765625 L 252.988281 112.847656 L 245.902344 121.292969 Z M 246.234375 103.753906 L 253.320312 95.308594 L 261.765625 102.390625 L 254.675781 110.839844 Z M 255.007812 93.296875 L 255.507812 92.699219 C 259.386719 90.890625 263.253906 89.609375 267.050781 88.761719 L 270.660156 91.789062 L 263.453125 100.382812 Z M 242.539062 104.078125 L 235.453125 112.523438 L 232.21875 109.8125 C 234.871094 107.039062 237.617188 104.554688 240.40625 102.289062 Z M 242.527344 100.640625 C 244.75 98.957031 246.996094 97.433594 249.257812 96.074219 L 244.226562 102.070312 Z M 224.996094 124.988281 L 217.90625 133.4375 L 216.320312 132.109375 C 217.980469 128.871094 219.882812 125.664062 222.027344 122.496094 Z M 216.21875 135.445312 L 213.082031 139.1875 C 213.707031 137.628906 214.375 136.074219 215.109375 134.511719 Z M 218.226562 137.128906 L 226.671875 144.214844 L 219.582031 152.664062 L 211.136719 145.582031 Z M 273.90625 130.402344 L 266.820312 138.847656 L 258.367188 131.753906 L 265.453125 123.308594 Z M 267.140625 121.296875 L 274.230469 112.851562 L 282.683594 119.941406 L 275.59375 128.390625 Z M 265.136719 140.851562 L 258.050781 149.296875 L 249.597656 142.207031 L 256.683594 133.761719 Z M 256.363281 151.308594 L 249.273438 159.757812 L 240.820312 152.664062 L 247.910156 144.214844 Z M 247.589844 161.765625 L 240.496094 170.214844 L 232.046875 163.125 L 239.136719 154.671875 Z M 238.816406 172.21875 L 231.832031 180.546875 L 223.378906 173.453125 L 230.367188 165.125 Z M 284.367188 117.933594 L 275.914062 110.839844 L 283.125 102.25 L 291.578125 109.339844 Z M 272.21875 111.164062 L 265.128906 119.609375 L 256.6875 112.527344 L 263.777344 104.078125 Z M 265.460938 102.070312 L 272.671875 93.476562 L 281.113281 100.5625 L 273.90625 109.152344 Z M 263.445312 121.621094 L 256.355469 130.066406 L 247.914062 122.980469 L 255 114.535156 Z M 254.671875 132.074219 L 247.585938 140.519531 L 239.144531 133.433594 L 246.230469 124.988281 Z M 245.898438 142.527344 L 238.808594 150.976562 L 230.367188 143.894531 L 237.457031 135.445312 Z M 237.125 152.984375 L 230.035156 161.4375 L 221.59375 154.351562 L 228.683594 145.902344 Z M 228.355469 163.4375 L 221.367188 171.765625 L 212.925781 164.679688 L 219.914062 156.355469 Z M 274.355469 91.46875 L 277.5625 87.648438 C 281.917969 87.753906 286.046875 88.589844 289.828125 90.179688 L 282.800781 98.554688 Z M 219.679688 173.777344 L 212.796875 181.976562 C 210.671875 178.417969 209.269531 174.332031 208.578125 169.859375 L 211.238281 166.691406 Z M 221.691406 175.464844 L 230.144531 182.554688 L 222.585938 191.5625 C 221.179688 190.765625 219.816406 189.882812 218.5625 188.828125 C 216.945312 187.472656 215.582031 185.898438 214.34375 184.222656 Z M 242.503906 171.898438 L 249.59375 163.449219 L 258.042969 170.539062 L 250.953125 178.992188 Z M 249.273438 180.992188 L 242.285156 189.320312 L 233.835938 182.230469 L 240.820312 173.902344 Z M 251.277344 161.441406 L 258.367188 152.992188 L 266.816406 160.082031 L 259.726562 168.53125 Z M 260.054688 150.980469 L 267.140625 142.535156 L 275.589844 149.628906 L 268.503906 158.074219 Z M 268.824219 140.53125 L 275.910156 132.085938 L 284.363281 139.175781 L 277.273438 147.621094 Z M 277.597656 130.074219 L 284.6875 121.625 L 293.136719 128.71875 L 286.046875 137.164062 Z M 286.371094 119.617188 L 293.582031 111.023438 L 302.03125 118.117188 L 294.824219 126.707031 Z M 240.597656 191.328125 L 237.226562 195.347656 C 232.835938 195.246094 228.710938 194.410156 224.992188 192.769531 L 232.148438 184.238281 Z M 295.265625 109.015625 L 302.542969 100.34375 C 304.878906 103.632812 306.554688 107.394531 307.574219 111.511719 L 303.71875 116.109375 Z M 307.46875 132.863281 L 305.277344 135.476562 L 296.832031 128.390625 L 304.042969 119.800781 L 308.683594 123.695312 C 308.550781 126.671875 308.148438 129.730469 307.46875 132.863281 Z M 301.242188 149.910156 L 298.515625 147.621094 L 305.601562 139.175781 L 305.714844 139.269531 C 304.558594 142.789062 303.070312 146.347656 301.242188 149.910156 Z M 290.09375 166.632812 C 288.5 168.53125 286.84375 170.320312 285.160156 172.046875 L 280.96875 168.53125 L 288.054688 160.085938 L 292.382812 163.714844 C 291.625 164.6875 290.902344 165.667969 290.09375 166.632812 Z M 294.816406 147.945312 L 287.726562 156.390625 L 279.285156 149.304688 L 286.371094 140.859375 Z M 288.058594 138.847656 L 295.148438 130.402344 L 303.589844 137.488281 L 296.5 145.933594 Z M 286.042969 158.398438 L 278.957031 166.84375 L 270.515625 159.757812 L 277.601562 151.3125 Z M 277.273438 168.851562 L 270.179688 177.300781 L 261.738281 170.21875 L 268.828125 161.765625 Z M 268.496094 179.308594 L 261.40625 187.761719 L 252.960938 180.675781 L 260.054688 172.226562 Z M 272.191406 178.988281 L 279.285156 170.539062 L 283.277344 173.890625 C 280.535156 176.554688 277.703125 178.984375 274.804688 181.183594 Z M 272.644531 182.792969 C 270.113281 184.589844 267.546875 186.179688 264.964844 187.605469 L 270.507812 180.996094 Z M 289.742188 158.078125 L 296.828125 149.632812 L 299.988281 152.285156 C 298.242188 155.425781 296.269531 158.558594 294 161.652344 Z M 251.28125 182.675781 L 259.726562 189.761719 L 259.089844 190.519531 C 255.398438 192.144531 251.71875 193.398438 248.117188 194.210938 L 244.296875 191.003906 Z M 308.734375 120.316406 L 305.726562 117.792969 L 308.222656 114.816406 C 308.503906 116.601562 308.683594 118.429688 308.734375 120.316406 Z M 300.894531 98.238281 L 293.261719 107.332031 L 284.808594 100.242188 L 292.257812 91.363281 C 294.089844 92.335938 295.851562 93.433594 297.46875 94.789062 C 298.726562 95.84375 299.847656 97.015625 300.894531 98.238281 Z M 274.089844 87.699219 L 272.34375 89.78125 L 270.371094 88.125 C 271.621094 87.941406 272.867188 87.777344 274.089844 87.699219 Z M 210.125 148.140625 L 217.902344 154.667969 L 210.914062 162.996094 L 208.125 160.65625 C 208.3125 156.632812 209.003906 152.429688 210.125 148.140625 Z M 208.113281 164.066406 L 209.226562 165.003906 L 208.164062 166.269531 C 208.117188 165.546875 208.128906 164.800781 208.113281 164.066406 Z M 211.660156 207.910156 C 202.261719 212.945312 192.738281 220.835938 190.074219 223.109375 L 189.832031 222.90625 C 191.605469 219.882812 197.726562 209.140625 201.054688 199.007812 C 202.597656 194.335938 203.9375 187.375 205.019531 180.648438 C 207.109375 185.757812 210.238281 190.21875 214.4375 193.742188 C 218.679688 197.300781 223.671875 199.613281 229.132812 200.785156 C 222.671875 203.015625 216.015625 205.570312 211.660156 207.910156 Z M 240.726562 195.257812 L 242.609375 193.015625 L 244.757812 194.816406 C 243.398438 195.027344 242.054688 195.171875 240.726562 195.257812 Z M 240.726562 195.257812 " fill-opacity="1" fill-rule="nonzero"/><path fill="#c6a785" d="M 151.984375 112.457031 C 127.390625 83.148438 93.308594 75.285156 73.480469 91.925781 C 53.648438 108.566406 55.472656 143.496094 80.066406 172.804688 C 93.171875 188.429688 109.558594 198.652344 125.015625 202.277344 L 124.855469 202.820312 C 125.109375 202.890625 150.257812 210.066406 160.464844 215.539062 C 168.441406 219.804688 176.78125 226.519531 180.085938 229.277344 L 178.816406 230.34375 L 223.324219 283.386719 L 223.332031 287.753906 L 227.136719 292.28125 L 244.476562 277.730469 L 240.378906 272.847656 L 235.480469 272.425781 L 191.347656 219.832031 L 190.316406 220.695312 C 188.167969 216.964844 183.019531 207.574219 180.1875 198.988281 C 176.570312 187.988281 173.875 161.972656 173.851562 161.707031 L 173.195312 161.773438 C 172.300781 145.945312 165.074219 128.058594 151.984375 112.457031 Z M 84.972656 168.6875 C 84.164062 167.722656 83.441406 166.742188 82.683594 165.769531 L 85.984375 163 L 93.070312 171.445312 L 89.90625 174.101562 C 88.21875 172.375 86.566406 170.585938 84.972656 168.6875 Z M 95.078125 169.761719 L 87.992188 161.316406 L 96.433594 154.230469 L 103.519531 162.675781 Z M 105.207031 164.6875 L 112.296875 173.136719 L 103.855469 180.222656 L 96.765625 171.773438 Z M 86.308594 159.308594 L 79.222656 150.863281 L 87.664062 143.78125 L 94.75 152.226562 Z M 77.535156 148.855469 L 70.445312 140.40625 L 78.890625 133.320312 L 85.976562 141.769531 Z M 68.757812 138.398438 L 68.257812 137.800781 C 67.148438 133.667969 66.558594 129.636719 66.386719 125.75 L 69.992188 122.71875 L 77.203125 131.3125 Z M 77.214844 152.550781 L 84.300781 160.996094 L 81.066406 163.707031 C 78.796875 160.613281 76.824219 157.480469 75.082031 154.339844 Z M 73.824219 151.964844 C 72.550781 149.484375 71.441406 147.007812 70.496094 144.542969 L 75.527344 150.539062 Z M 94.757812 173.457031 L 101.847656 181.90625 L 100.261719 183.234375 C 97.363281 181.039062 94.535156 178.609375 91.789062 175.945312 Z M 103.53125 183.914062 L 106.671875 187.65625 C 105.246094 186.769531 103.828125 185.84375 102.421875 184.847656 Z M 105.539062 182.230469 L 113.984375 175.144531 L 121.074219 183.59375 L 112.628906 190.679688 Z M 108.582031 126.226562 L 115.667969 134.671875 L 107.214844 141.765625 L 100.128906 133.320312 Z M 98.441406 131.308594 L 91.351562 122.863281 L 99.804688 115.769531 L 106.894531 124.21875 Z M 117.351562 136.679688 L 124.4375 145.125 L 115.984375 152.21875 L 108.898438 143.773438 Z M 126.125 147.136719 L 133.214844 155.585938 L 124.761719 162.679688 L 117.671875 154.226562 Z M 134.898438 157.59375 L 141.992188 166.042969 L 133.539062 173.136719 L 126.445312 164.6875 Z M 143.671875 168.046875 L 150.65625 176.371094 L 142.203125 183.464844 L 135.21875 175.136719 Z M 98.121094 113.761719 L 89.667969 120.851562 L 82.457031 112.261719 L 90.910156 105.167969 Z M 89.34375 124.550781 L 96.429688 133 L 87.988281 140.082031 L 80.902344 131.632812 Z M 79.214844 129.625 L 72.003906 121.03125 L 80.445312 113.949219 L 87.65625 122.539062 Z M 98.117188 135.007812 L 105.203125 143.453125 L 96.761719 150.539062 L 89.675781 142.09375 Z M 106.886719 145.460938 L 113.976562 153.90625 L 105.53125 160.988281 L 98.445312 152.542969 Z M 115.660156 155.914062 L 122.75 164.363281 L 114.308594 171.449219 L 107.21875 163 Z M 124.4375 166.371094 L 131.527344 174.824219 L 123.085938 181.90625 L 115.992188 173.457031 Z M 133.207031 176.824219 L 140.195312 185.152344 L 131.75 192.238281 L 124.765625 183.910156 Z M 70.320312 119.023438 L 67.113281 115.203125 C 67.972656 110.933594 69.515625 107.015625 71.734375 103.5625 L 78.761719 111.941406 Z M 141.882812 187.164062 L 148.761719 195.363281 C 144.890625 196.84375 140.617188 197.511719 136.09375 197.414062 L 133.4375 194.25 Z M 143.890625 185.476562 L 152.34375 178.382812 L 159.902344 187.390625 C 158.875 188.636719 157.769531 189.824219 156.511719 190.878906 C 154.894531 192.234375 153.105469 193.304688 151.242188 194.234375 Z M 143.996094 164.363281 L 136.90625 155.910156 L 145.355469 148.820312 L 152.445312 157.269531 Z M 154.125 159.273438 L 161.113281 167.601562 L 152.664062 174.691406 L 145.675781 166.363281 Z M 135.222656 153.90625 L 128.128906 145.453125 L 136.582031 138.363281 L 143.671875 146.8125 Z M 126.445312 143.445312 L 119.359375 135 L 127.808594 127.910156 L 134.894531 136.355469 Z M 117.671875 132.992188 L 110.585938 124.546875 L 119.039062 117.457031 L 126.125 125.902344 Z M 108.898438 122.535156 L 101.8125 114.089844 L 110.261719 107 L 117.351562 115.445312 Z M 100.125 112.078125 L 92.917969 103.488281 L 101.367188 96.398438 L 108.578125 104.988281 Z M 162.800781 169.609375 L 166.171875 173.632812 C 165.3125 177.9375 163.769531 181.851562 161.507812 185.230469 L 154.351562 176.703125 Z M 91.230469 101.480469 L 83.953125 92.808594 C 87.597656 91.078125 91.59375 90.082031 95.824219 89.792969 L 99.683594 94.386719 Z M 116.835938 93.601562 L 119.027344 96.21875 L 110.585938 103.300781 L 103.375 94.710938 L 108.015625 90.816406 C 110.925781 91.464844 113.867188 92.390625 116.835938 93.601562 Z M 132.542969 102.695312 L 129.8125 104.984375 L 122.726562 96.539062 L 122.839844 96.445312 C 126.105469 98.195312 129.351562 100.277344 132.542969 102.695312 Z M 147.074219 116.578125 C 148.664062 118.476562 150.140625 120.417969 151.550781 122.375 L 147.359375 125.894531 L 140.273438 117.449219 L 144.597656 113.820312 C 145.421875 114.734375 146.261719 115.617188 147.074219 116.578125 Z M 129.488281 108.683594 L 136.574219 117.128906 L 128.132812 124.214844 L 121.046875 115.769531 Z M 119.359375 113.757812 L 112.269531 105.3125 L 120.714844 98.226562 L 127.800781 106.675781 Z M 138.257812 119.136719 L 145.347656 127.582031 L 136.902344 134.667969 L 129.816406 126.222656 Z M 147.03125 129.589844 L 154.121094 138.042969 L 145.679688 145.125 L 138.589844 136.675781 Z M 155.808594 140.050781 L 162.898438 148.5 L 154.457031 155.585938 L 147.363281 147.132812 Z M 156.132812 136.351562 L 149.042969 127.902344 L 153.039062 124.550781 C 155.183594 127.714844 157.085938 130.925781 158.746094 134.160156 Z M 159.957031 136.566406 C 161.289062 139.375 162.40625 142.175781 163.363281 144.96875 L 157.820312 138.363281 Z M 138.585938 115.441406 L 131.5 106.996094 L 134.660156 104.34375 C 137.449219 106.609375 140.195312 109.09375 142.847656 111.867188 Z M 156.136719 157.585938 L 164.578125 150.5 L 165.214844 151.261719 C 166.171875 155.175781 166.769531 159.019531 166.941406 162.707031 L 163.121094 165.914062 Z M 104.695312 90.179688 L 101.691406 92.703125 L 99.195312 89.726562 C 101 89.761719 102.832031 89.902344 104.695312 90.179688 Z M 81.59375 94.066406 L 89.226562 103.160156 L 80.773438 110.253906 L 73.324219 101.378906 C 74.597656 99.742188 75.984375 98.199219 77.601562 96.839844 C 78.859375 95.785156 80.207031 94.886719 81.59375 94.066406 Z M 66.5625 118.632812 L 68.308594 120.714844 L 66.335938 122.367188 C 66.367188 121.105469 66.425781 119.851562 66.5625 118.632812 Z M 114.976562 192.121094 L 122.753906 185.597656 L 129.742188 193.921875 L 126.953125 196.261719 C 123.023438 195.378906 119.003906 193.96875 114.976562 192.121094 Z M 130.3125 196.871094 L 131.425781 195.933594 L 132.488281 197.199219 C 131.769531 197.121094 131.039062 196.980469 130.3125 196.871094 Z M 174.101562 200.988281 C 177.429688 211.121094 183.546875 221.867188 185.320312 224.886719 L 185.082031 225.085938 C 182.414062 222.816406 172.894531 214.921875 163.496094 209.886719 C 159.160156 207.558594 152.539062 205.03125 146.105469 202.792969 C 151.5 201.625 156.433594 199.316406 160.632812 195.792969 C 164.875 192.234375 168.019531 187.71875 170.121094 182.542969 C 171.195312 189.296875 172.554688 196.292969 174.101562 200.988281 Z M 166.691406 170.167969 L 164.808594 167.921875 L 166.957031 166.121094 C 166.929688 167.496094 166.835938 168.847656 166.691406 170.167969 Z M 166.691406 170.167969 " fill-opacity="1" fill-rule="nonzero"/></svg>