<svg xmlns="http://www.w3.org/2000/svg" xmlns:xlink="http://www.w3.org/1999/xlink" width="500" zoomAndPan="magnify" viewBox="0 0 375 374.999991" height="500" preserveAspectRatio="xMidYMid meet" version="1.0"><defs><clipPath id="6fae1ac785"><path d="M 37.5 56.589844 L 337.5 56.589844 L 337.5 318.339844 L 37.5 318.339844 Z M 37.5 56.589844 " clip-rule="nonzero"/></clipPath></defs><g clip-path="url(#6fae1ac785)"><path fill="#c6a785" d="M 242.878906 124.03125 C 243.664062 125.402344 244.414062 126.769531 245.128906 128.152344 C 245.980469 129.773438 246.78125 131.40625 247.550781 133.042969 C 247.734375 133.445312 247.917969 133.828125 248.082031 134.226562 C 248.632812 135.480469 249.167969 136.730469 249.667969 138 C 250.320312 139.648438 250.921875 141.320312 251.488281 143.003906 C 252.789062 146.957031 253.839844 150.980469 254.640625 155.066406 C 254.976562 156.785156 255.257812 158.503906 255.507812 160.238281 C 255.742188 161.925781 255.941406 163.628906 256.09375 165.328125 C 256.242188 167.015625 256.359375 168.714844 256.425781 170.417969 C 256.527344 173.136719 256.527344 175.875 256.425781 178.59375 C 255.808594 193.777344 251.839844 208.808594 244.5625 222.125 C 241.578125 227.566406 238.023438 232.738281 233.984375 237.574219 C 229.898438 242.464844 225.359375 246.9375 220.453125 250.941406 C 220.335938 251.023438 218.117188 252.777344 217.566406 253.191406 C 217.03125 253.609375 216.566406 253.976562 216.367188 254.109375 L 216.316406 254.160156 C 213.261719 256.445312 210.191406 258.582031 207.105469 260.566406 C 205.671875 261.484375 204.21875 262.386719 202.765625 263.253906 C 203.433594 264.15625 204.136719 265.023438 204.851562 265.890625 C 206.769531 268.191406 208.875 270.34375 211.109375 272.316406 C 212.59375 271.398438 214.097656 270.445312 215.582031 269.460938 C 218.234375 267.691406 220.886719 265.839844 223.523438 263.855469 L 224.957031 262.738281 L 227.945312 260.433594 L 227.828125 260.152344 L 228.011719 260.367188 C 233.585938 255.828125 238.707031 250.789062 243.277344 245.335938 C 247.765625 239.960938 251.769531 234.140625 255.175781 227.898438 C 263.351562 212.933594 267.824219 196.078125 268.507812 179.078125 C 268.589844 176.875 268.625 174.65625 268.589844 172.453125 C 268.558594 170.667969 268.488281 168.898438 268.375 167.132812 C 268.257812 165.34375 268.105469 163.558594 267.90625 161.792969 C 267.707031 160.007812 267.457031 158.222656 267.171875 156.4375 C 266.488281 152.148438 265.535156 147.894531 264.351562 143.703125 C 263.851562 141.917969 263.300781 140.152344 262.699219 138.398438 C 262.097656 136.628906 261.449219 134.863281 260.746094 133.125 C 260.246094 131.859375 259.714844 130.605469 259.144531 129.355469 C 258.929688 128.871094 258.710938 128.386719 258.480469 127.902344 C 256.925781 124.550781 255.226562 121.296875 253.40625 118.125 C 251.320312 114.472656 249.117188 110.953125 246.847656 107.546875 C 243.078125 101.859375 236.203125 92.582031 225.207031 83.472656 C 214.246094 74.394531 199.144531 65.46875 178.875 60.429688 C 166.125 57.007812 152.792969 56.191406 139.714844 57.742188 C 126.433594 59.328125 113.402344 63.367188 101.539062 69.621094 C 89.957031 75.730469 79.53125 83.855469 70.636719 93.414062 C 61.578125 103.160156 54.085938 114.421875 48.5625 126.550781 C 42.421875 140.050781 38.71875 154.699219 37.765625 169.46875 C 36.847656 183.832031 38.550781 198.332031 43.15625 212.03125 C 47.976562 226.347656 55.988281 239.460938 66.230469 250.472656 C 74.589844 259.449219 84.46875 267.042969 95.332031 272.765625 C 94.179688 273.832031 92.996094 274.867188 91.777344 275.867188 C 88.507812 278.570312 85.019531 281.007812 81.316406 283.175781 L 82.851562 294.238281 C 90.023438 296.109375 121.144531 301.53125 158 293.554688 C 163.625 292.335938 169.398438 290.800781 175.238281 288.898438 C 176.9375 288.347656 178.65625 287.765625 180.375 287.132812 C 180.257812 286.980469 180.125 286.847656 180.007812 286.695312 C 177.421875 283.609375 175.054688 280.339844 172.902344 276.917969 C 171.230469 277.488281 169.5625 278.003906 167.910156 278.503906 C 163.691406 279.773438 159.535156 280.824219 155.449219 281.707031 C 132.90625 286.597656 112.902344 286.164062 99.917969 284.8125 C 103.507812 281.808594 106.910156 278.488281 110.0625 274.882812 L 115.554688 268.609375 L 107.878906 265.355469 C 95.496094 260.101562 84.269531 252.109375 75.074219 242.230469 C 65.949219 232.4375 58.839844 220.824219 54.601562 208.191406 C 50.515625 196.03125 49.011719 183.082031 49.832031 170.21875 C 50.679688 156.886719 54.019531 143.6875 59.542969 131.574219 C 64.511719 120.644531 71.289062 110.484375 79.480469 101.660156 C 87.472656 93.066406 96.800781 85.773438 107.160156 80.316406 C 117.6875 74.761719 129.285156 71.175781 141.132812 69.757812 C 152.710938 68.371094 164.507812 69.089844 175.753906 72.109375 L 175.871094 72.125 C 194.105469 76.648438 207.65625 84.640625 217.5 92.78125 C 227.328125 100.90625 233.417969 109.167969 236.769531 114.207031 C 238.941406 117.476562 241.007812 120.78125 242.910156 124.082031 Z M 244.429688 155.75 C 243.59375 151.78125 242.496094 147.859375 241.109375 144.039062 C 239.425781 144.320312 237.753906 144.671875 236.085938 145.089844 C 235.585938 145.207031 235.070312 145.339844 234.570312 145.472656 C 219.835938 149.144531 208.855469 155.636719 200.882812 162.242188 C 192.871094 168.882812 187.867188 175.640625 185.113281 179.796875 C 183.480469 182.246094 181.894531 184.785156 180.375 187.4375 C 178.875 190.054688 177.472656 192.777344 176.222656 195.597656 C 171.148438 206.941406 168.894531 219.457031 169.398438 231.835938 C 169.796875 241.714844 171.949219 251.523438 175.820312 260.617188 C 176.488281 262.1875 177.207031 263.722656 177.972656 265.238281 C 178.339844 265.972656 178.722656 266.691406 179.105469 267.410156 C 179.542969 268.191406 179.992188 268.976562 180.441406 269.761719 C 181.144531 270.945312 181.878906 272.113281 182.644531 273.25 C 184.246094 275.652344 185.964844 277.9375 187.785156 280.125 C 188.632812 281.125 189.503906 282.125 190.386719 283.09375 C 191.605469 284.410156 192.890625 285.695312 194.207031 286.949219 C 195.542969 288.214844 196.925781 289.449219 198.363281 290.636719 C 198.546875 290.785156 198.730469 290.933594 198.894531 291.085938 L 199.0625 290.886719 L 198.960938 291.152344 C 198.996094 291.183594 199.378906 291.46875 201.113281 292.804688 L 202.167969 293.621094 C 202.398438 293.789062 202.617188 293.957031 202.851562 294.140625 C 218.316406 305.585938 234.617188 311.839844 249.519531 315.078125 C 276.132812 320.835938 298.691406 316.898438 303.894531 315.546875 L 305.429688 304.484375 C 302.878906 303 300.457031 301.296875 298.207031 299.445312 L 297.570312 298.910156 C 304.628906 294.90625 311.054688 289.800781 316.59375 283.859375 C 324.066406 275.835938 329.90625 266.273438 333.429688 255.828125 C 336.78125 245.835938 338.015625 235.273438 337.351562 224.828125 C 336.664062 214.101562 333.960938 203.4375 329.492188 193.628906 C 325.46875 184.800781 320.03125 176.625 313.457031 169.550781 C 306.984375 162.59375 299.40625 156.667969 290.964844 152.230469 C 287.761719 150.546875 284.425781 149.078125 281.019531 147.824219 C 279.167969 147.160156 277.300781 146.558594 275.414062 146.023438 C 276.464844 150.480469 277.28125 154.984375 277.832031 159.539062 C 279.652344 160.222656 281.4375 160.992188 283.191406 161.839844 C 283.90625 162.191406 284.625 162.558594 285.34375 162.925781 C 292.550781 166.730469 299.039062 171.804688 304.613281 177.792969 C 310.335938 183.949219 315.058594 191.039062 318.527344 198.664062 C 322.382812 207.109375 324.703125 216.320312 325.285156 225.613281 C 325.855469 234.574219 324.820312 243.582031 321.964844 252.023438 C 319.011719 260.785156 314.074219 268.859375 307.734375 275.667969 C 301.34375 282.527344 293.535156 288.082031 284.941406 291.734375 L 277.265625 294.988281 L 282.753906 301.261719 C 284.15625 302.863281 285.625 304.382812 287.144531 305.835938 C 278.167969 306.453125 265.804688 306.269531 252.070312 303.300781 C 240.125 300.710938 227.242188 296.007812 214.832031 287.847656 C 213.277344 286.832031 211.742188 285.761719 210.207031 284.644531 C 209.925781 284.429688 209.625 284.210938 209.339844 283.992188 L 209.289062 283.945312 C 209.140625 283.828125 208.824219 283.59375 208.472656 283.328125 L 206.421875 281.707031 C 206.238281 281.558594 206.039062 281.390625 205.855469 281.242188 C 204.484375 280.089844 203.152344 278.886719 201.867188 277.636719 C 200.179688 275.984375 198.578125 274.25 197.042969 272.449219 C 195.890625 271.078125 194.808594 269.679688 193.773438 268.226562 C 193.074219 267.242188 192.390625 266.222656 191.738281 265.207031 C 191.019531 264.054688 190.320312 262.902344 189.6875 261.71875 C 189.519531 261.417969 189.351562 261.101562 189.203125 260.800781 C 188.417969 259.300781 187.683594 257.78125 187.015625 256.214844 C 183.644531 248.40625 181.792969 239.960938 181.441406 231.4375 C 181.007812 220.875 182.929688 210.230469 187.234375 200.601562 C 188.300781 198.199219 189.535156 195.828125 190.871094 193.492188 C 192.1875 191.191406 193.640625 188.871094 195.175781 186.550781 C 197.511719 183.046875 201.75 177.308594 208.574219 171.652344 C 215.414062 165.980469 224.859375 160.40625 237.554688 157.269531 L 237.671875 157.253906 C 238.257812 157.101562 238.839844 156.953125 239.425781 156.804688 C 241.074219 156.417969 242.726562 156.085938 244.414062 155.835938 Z M 244.429688 155.75 " fill-opacity="1" fill-rule="evenodd"/></g></svg>