<svg xmlns="http://www.w3.org/2000/svg" xmlns:xlink="http://www.w3.org/1999/xlink" width="500" zoomAndPan="magnify" viewBox="0 0 375 374.999991" height="500" preserveAspectRatio="xMidYMid meet" version="1.0"><defs><clipPath id="42b49eb512"><path d="M 37.5 99.136719 L 337.5 99.136719 L 337.5 240 L 37.5 240 Z M 37.5 99.136719 " clip-rule="nonzero"/></clipPath></defs><g clip-path="url(#42b49eb512)"><path fill="#c6a785" d="M 98.535156 140.019531 L 130.558594 175.667969 L 125.910156 181.925781 L 105.085938 165.917969 Z M 187.492188 112.789062 L 233.832031 175.171875 L 187.492188 226.753906 L 141.167969 175.175781 Z M 276.46875 140.015625 L 269.910156 165.921875 L 249.09375 181.929688 L 244.4375 175.667969 Z M 215.859375 207.484375 L 238.835938 181.90625 L 242.578125 186.941406 Z M 132.429688 186.9375 L 136.164062 181.910156 L 159.09375 207.4375 Z M 79.539062 221 L 87.195312 218 L 56.054688 138.589844 L 187.492188 239.058594 L 250.789062 190.996094 L 252.867188 189.402344 L 253.992188 188.535156 L 318.945312 138.589844 L 287.804688 218 L 295.460938 221 L 337.414062 114.015625 L 280.441406 157.824219 L 292.613281 109.742188 L 239.4375 168.933594 L 187.492188 99 L 135.558594 168.933594 L 82.386719 109.738281 L 94.554688 157.816406 L 37.585938 114.015625 L 79.539062 221 " fill-opacity="1" fill-rule="nonzero"/></g><path fill="#c6a785" d="M 187.496094 239.625 L 200.425781 254.371094 L 203.867188 258.296875 L 195.527344 262.597656 L 187.496094 266.746094 L 179.453125 262.597656 L 171.113281 258.296875 L 174.554688 254.371094 Z M 187.496094 276 L 213.476562 262.597656 L 318.421875 262.597656 L 318.421875 254.371094 L 211.355469 254.371094 L 187.496094 227.152344 L 163.636719 254.371094 L 56.566406 254.371094 L 56.566406 262.597656 L 161.507812 262.597656 L 187.496094 276 " fill-opacity="1" fill-rule="nonzero"/><path fill="#c6a785" d="M 76.695312 246.28125 L 157.765625 246.28125 L 157.765625 238.058594 L 76.695312 238.058594 L 76.695312 246.28125 " fill-opacity="1" fill-rule="nonzero"/><path fill="#c6a785" d="M 217.21875 246.28125 L 298.289062 246.28125 L 298.289062 238.058594 L 217.21875 238.058594 L 217.21875 246.28125 " fill-opacity="1" fill-rule="nonzero"/></svg>