<svg xmlns="http://www.w3.org/2000/svg" xmlns:xlink="http://www.w3.org/1999/xlink" width="500" zoomAndPan="magnify" viewBox="0 0 375 374.999991" height="500" preserveAspectRatio="xMidYMid meet" version="1.0"><defs><clipPath id="203dcfd19b"><path d="M 208 229 L 323.625 229 L 323.625 311 L 208 311 Z M 208 229 " clip-rule="nonzero"/></clipPath><clipPath id="647c7fb793"><path d="M 82 37.5 L 323.625 37.5 L 323.625 143 L 82 143 Z M 82 37.5 " clip-rule="nonzero"/></clipPath><clipPath id="bdb4170361"><path d="M 51.375 105 L 138 105 L 138 211 L 51.375 211 Z M 51.375 105 " clip-rule="nonzero"/></clipPath><clipPath id="fe83f445fe"><path d="M 55 215 L 253 215 L 253 337.5 L 55 337.5 Z M 55 215 " clip-rule="nonzero"/></clipPath></defs><g clip-path="url(#203dcfd19b)"><path fill="#c6a785" d="M 270.507812 243.382812 C 270.507812 246.828125 267.703125 249.628906 264.265625 249.628906 C 260.820312 249.628906 258.023438 246.828125 258.023438 243.382812 C 258.023438 239.941406 260.820312 237.140625 264.265625 237.140625 C 267.703125 237.140625 270.507812 239.941406 270.507812 243.382812 Z M 323.570312 243.382812 C 323.570312 237.792969 319.035156 233.257812 313.445312 233.257812 C 308.859375 233.257812 304.992188 236.308594 303.746094 240.492188 L 277.425781 240.492188 C 276.101562 234.441406 270.710938 229.90625 264.265625 229.90625 C 256.820312 229.90625 250.785156 235.941406 250.785156 243.382812 C 250.785156 246.804688 252.066406 249.925781 254.164062 252.300781 C 246.597656 259.363281 237.945312 264.980469 228.574219 268.980469 C 227.421875 264.65625 223.488281 261.464844 218.800781 261.464844 C 213.207031 261.464844 208.675781 266 208.675781 271.589844 C 208.675781 277.179688 213.207031 281.714844 218.800781 281.714844 C 223.046875 281.714844 226.675781 279.097656 228.179688 275.386719 C 239.539062 270.949219 249.972656 264.320312 258.929688 255.757812 C 259.707031 256.097656 260.523438 256.359375 261.371094 256.542969 L 261.371094 283.964844 C 258.542969 284.585938 256.050781 286.089844 254.195312 288.175781 L 234.230469 276.996094 L 231.398438 282.046875 L 251.363281 293.222656 C 250.992188 294.457031 250.785156 295.769531 250.785156 297.128906 C 250.785156 304.570312 256.820312 310.605469 264.265625 310.605469 C 271.703125 310.605469 277.738281 304.570312 277.738281 297.128906 C 277.738281 290.679688 273.207031 285.292969 267.15625 283.964844 L 267.15625 256.542969 C 272.203125 255.441406 276.1875 251.511719 277.371094 246.496094 L 303.808594 246.496094 C 304.511719 248.671875 305.933594 250.53125 307.792969 251.785156 C 300.246094 265.085938 290.507812 276.789062 279.164062 286.527344 C 280.332031 288.164062 281.234375 290 281.816406 291.96875 C 294.621094 281.191406 305.335938 268.167969 313.457031 253.507812 C 319.042969 253.5 323.570312 248.972656 323.570312 243.382812 " fill-opacity="1" fill-rule="nonzero"/></g><g clip-path="url(#647c7fb793)"><path fill="#c6a785" d="M 316.335938 128.605469 C 316.335938 132.046875 313.535156 134.847656 310.09375 134.847656 C 306.648438 134.847656 303.847656 132.046875 303.847656 128.605469 C 303.847656 125.164062 306.648438 122.359375 310.09375 122.359375 C 313.535156 122.359375 316.335938 125.164062 316.335938 128.605469 Z M 259.296875 78.21875 C 254.445312 78.21875 250.496094 74.269531 250.496094 69.417969 C 250.496094 64.566406 254.445312 60.621094 259.296875 60.621094 C 264.148438 60.621094 268.09375 64.566406 268.09375 69.417969 C 268.09375 74.269531 264.148438 78.21875 259.296875 78.21875 Z M 180.203125 50.976562 C 180.203125 54.417969 177.402344 57.21875 173.960938 57.21875 C 170.515625 57.21875 167.71875 54.417969 167.71875 50.976562 C 167.71875 47.535156 170.515625 44.734375 173.960938 44.734375 C 177.402344 44.734375 180.203125 47.535156 180.203125 50.976562 Z M 164.316406 102.820312 C 164.316406 107.671875 160.371094 111.617188 155.519531 111.617188 C 150.667969 111.617188 146.71875 107.671875 146.71875 102.820312 C 146.71875 97.96875 150.667969 94.023438 155.519531 94.023438 C 160.371094 94.023438 164.316406 97.96875 164.316406 102.820312 Z M 323.566406 128.605469 C 323.566406 121.164062 317.535156 115.128906 310.09375 115.128906 C 302.886719 115.128906 297.007812 120.78125 296.632812 127.890625 L 273.53125 127.890625 C 272.238281 124.949219 269.59375 122.742188 266.378906 122.054688 L 263.625 87.34375 C 265.894531 86.796875 268 85.832031 269.855469 84.53125 L 294.535156 110.117188 L 298.695312 106.101562 L 274.023438 80.519531 C 276.355469 77.429688 277.738281 73.585938 277.738281 69.417969 C 277.738281 59.234375 269.484375 50.976562 259.296875 50.976562 C 252.683594 50.976562 246.890625 54.457031 243.632812 59.6875 C 227.820312 53.480469 210.90625 50.261719 193.648438 50.261719 C 191.566406 50.261719 189.488281 50.308594 187.421875 50.398438 C 187.117188 43.222656 181.207031 37.5 173.960938 37.5 C 166.515625 37.5 160.484375 43.535156 160.484375 50.976562 C 160.484375 52.085938 160.621094 53.160156 160.875 54.191406 C 139.980469 59.300781 120.589844 69.292969 104.089844 83.601562 C 105.320312 85.199219 106.234375 87.054688 106.738281 89.066406 C 122.695312 74.914062 142.117188 64.589844 163.550781 59.535156 C 164.476562 60.660156 165.582031 61.628906 166.824219 62.40625 L 158.894531 84.695312 C 157.800781 84.492188 156.671875 84.378906 155.519531 84.378906 C 147.335938 84.378906 140.402344 89.710938 137.992188 97.085938 L 102.265625 91.371094 C 101.617188 86.40625 97.378906 82.570312 92.238281 82.570312 C 86.648438 82.570312 82.113281 87.105469 82.113281 92.695312 C 82.113281 98.285156 86.648438 102.820312 92.238281 102.820312 C 96.253906 102.820312 99.714844 100.476562 101.351562 97.082031 L 137.078125 102.800781 L 137.078125 102.820312 C 137.078125 113.003906 145.332031 121.261719 155.519531 121.261719 C 165.703125 121.261719 173.960938 113.003906 173.960938 102.820312 C 173.960938 95.832031 170.074219 89.757812 164.347656 86.628906 L 172.273438 64.34375 C 172.828125 64.414062 173.390625 64.453125 173.960938 64.453125 C 176.964844 64.453125 179.742188 63.46875 181.980469 61.804688 L 210.386719 86.558594 L 214.191406 82.195312 L 185.785156 57.441406 C 185.996094 57.058594 186.1875 56.664062 186.363281 56.253906 C 188.777344 56.121094 191.203125 56.046875 193.648438 56.046875 C 210.242188 56.046875 226.390625 59.226562 241.367188 65.105469 C 241.035156 66.492188 240.855469 67.933594 240.855469 69.417969 C 240.855469 79.117188 248.34375 87.0625 257.855469 87.800781 L 260.417969 120.082031 C 253.019531 112.691406 244.550781 106.664062 235.34375 102.148438 C 235.394531 101.730469 235.429688 101.308594 235.429688 100.878906 C 235.429688 95.289062 230.898438 90.753906 225.308594 90.753906 C 221.75 90.753906 218.625 92.59375 216.820312 95.367188 C 209.347656 93.492188 201.574219 92.523438 193.648438 92.523438 C 187.984375 92.523438 182.429688 93.027344 177.035156 93.988281 C 177.765625 95.757812 178.28125 97.640625 178.554688 99.597656 C 183.460938 98.753906 188.503906 98.308594 193.648438 98.308594 C 201.015625 98.308594 208.234375 99.207031 215.1875 100.929688 C 215.210938 106.496094 219.734375 111.003906 225.308594 111.003906 C 228.390625 111.003906 231.144531 109.621094 233.003906 107.445312 C 241.851562 111.820312 249.976562 117.679688 257.027344 124.878906 C 255.242188 126.707031 254.136719 129.199219 254.136719 131.957031 C 254.136719 137.546875 258.667969 142.082031 264.261719 142.082031 C 269.265625 142.082031 273.410156 138.445312 274.230469 133.679688 L 297.605469 133.679688 C 299.613281 138.605469 304.445312 142.082031 310.09375 142.082031 C 317.535156 142.082031 323.566406 136.046875 323.566406 128.605469 " fill-opacity="1" fill-rule="nonzero"/></g><g clip-path="url(#bdb4170361)"><path fill="#c6a785" d="M 66.878906 152.203125 C 66.878906 155.128906 64.5 157.507812 61.578125 157.507812 C 58.652344 157.507812 56.273438 155.128906 56.273438 152.203125 C 56.273438 149.28125 58.652344 146.902344 61.578125 146.902344 C 64.5 146.902344 66.878906 149.28125 66.878906 152.203125 Z M 100.554688 183.699219 C 105.40625 183.699219 109.355469 187.644531 109.355469 192.496094 C 109.355469 197.347656 105.40625 201.296875 100.554688 201.296875 C 95.703125 201.296875 91.757812 197.347656 91.757812 192.496094 C 91.757812 187.644531 95.703125 183.699219 100.554688 183.699219 Z M 137.917969 118.007812 C 136.65625 116.542969 135.570312 114.921875 134.699219 113.175781 C 128.429688 118.179688 122.8125 123.960938 117.988281 130.371094 C 116.359375 129.257812 114.394531 128.605469 112.273438 128.605469 C 106.785156 128.605469 102.328125 132.972656 102.164062 138.421875 L 70.203125 146.917969 C 69.921875 146.464844 69.613281 146.035156 69.269531 145.632812 C 73.933594 131.710938 80.871094 118.820312 89.640625 107.410156 C 87.582031 107.046875 85.667969 106.265625 83.988281 105.148438 C 75.425781 116.546875 68.777344 129.105469 64.1875 142.429688 C 63.351562 142.210938 62.480469 142.078125 61.578125 142.078125 C 55.984375 142.078125 51.453125 146.613281 51.453125 152.203125 C 51.453125 156.789062 54.503906 160.660156 58.683594 161.902344 L 58.683594 210.9375 L 64.46875 210.9375 L 64.46875 161.902344 C 68.558594 160.6875 71.554688 156.960938 71.6875 152.511719 L 103.652344 144.015625 C 104.613281 145.578125 105.980469 146.863281 107.617188 147.710938 C 103.824219 155.933594 101.1875 164.789062 99.894531 174.070312 C 90.015625 174.421875 82.113281 182.535156 82.113281 192.496094 C 82.113281 202.683594 90.371094 210.9375 100.554688 210.9375 C 110.742188 210.9375 118.996094 202.683594 118.996094 192.496094 C 118.996094 184.074219 113.351562 176.976562 105.636719 174.769531 C 106.929688 165.582031 109.632812 156.839844 113.515625 148.769531 C 118.523438 148.15625 122.398438 143.898438 122.398438 138.726562 C 122.398438 137.4375 122.148438 136.207031 121.707031 135.070312 C 126.339844 128.695312 131.792969 122.953125 137.917969 118.007812 " fill-opacity="1" fill-rule="nonzero"/></g><g clip-path="url(#fe83f445fe)"><path fill="#c6a785" d="M 209.15625 319.058594 C 209.15625 323.910156 205.210938 327.859375 200.359375 327.859375 C 195.507812 327.859375 191.558594 323.910156 191.558594 319.058594 C 191.558594 314.207031 195.507812 310.257812 200.359375 310.257812 C 205.210938 310.257812 209.15625 314.207031 209.15625 319.058594 Z M 179.265625 273.527344 C 179.265625 276.453125 176.886719 278.832031 173.960938 278.832031 C 171.035156 278.832031 168.65625 276.453125 168.65625 273.527344 C 168.65625 270.605469 171.035156 268.222656 173.960938 268.222656 C 176.886719 268.222656 179.265625 270.605469 179.265625 273.527344 Z M 68.636719 236.152344 C 65.195312 236.152344 62.394531 233.351562 62.394531 229.90625 C 62.394531 226.46875 65.195312 223.664062 68.636719 223.664062 C 72.082031 223.664062 74.882812 226.46875 74.882812 229.90625 C 74.882812 233.351562 72.082031 236.152344 68.636719 236.152344 Z M 116.15625 243.382812 C 116.15625 239.941406 118.957031 237.140625 122.398438 237.140625 C 125.84375 237.140625 128.644531 239.941406 128.644531 243.382812 C 128.644531 246.824219 125.84375 249.628906 122.398438 249.628906 C 118.957031 249.628906 116.15625 246.824219 116.15625 243.382812 Z M 252.300781 310.957031 C 250.765625 309.625 249.453125 308.042969 248.425781 306.273438 C 238.9375 310.652344 228.90625 313.914062 218.53125 315.9375 C 217.046875 307.242188 209.480469 300.617188 200.359375 300.617188 C 198.019531 300.617188 195.785156 301.054688 193.726562 301.851562 L 181.324219 280.460938 C 183.03125 278.648438 184.085938 276.214844 184.085938 273.527344 C 184.085938 267.933594 179.550781 263.402344 173.960938 263.402344 C 168.894531 263.402344 164.710938 267.128906 163.964844 271.984375 L 118.203125 278.296875 C 115.910156 270.726562 108.878906 265.210938 100.554688 265.210938 C 96.867188 265.210938 93.4375 266.296875 90.554688 268.160156 C 84.25 260.144531 78.855469 251.382812 74.535156 242.027344 C 77.203125 240.726562 79.375 238.570312 80.699219 235.914062 L 108.933594 242.992188 C 108.929688 243.121094 108.921875 243.25 108.921875 243.382812 C 108.921875 250.828125 114.957031 256.859375 122.398438 256.859375 C 129.839844 256.859375 135.875 250.828125 135.875 243.382812 C 135.875 235.941406 129.839844 229.90625 122.398438 229.90625 C 121.746094 229.90625 121.105469 229.957031 120.480469 230.046875 L 114.984375 215.414062 L 109.566406 217.449219 L 115.0625 232.082031 C 113.054688 233.390625 111.414062 235.21875 110.335938 237.375 L 82.105469 230.300781 C 82.109375 230.167969 82.113281 230.039062 82.113281 229.90625 C 82.113281 222.464844 76.082031 216.433594 68.636719 216.433594 C 61.195312 216.433594 55.164062 222.464844 55.164062 229.90625 C 55.164062 237.351562 61.195312 243.382812 68.636719 243.382812 C 68.664062 243.382812 68.691406 243.382812 68.714844 243.378906 C 73.300781 253.570312 79.144531 263.210938 86.191406 272.09375 C 83.640625 275.257812 82.113281 279.277344 82.113281 283.652344 C 82.113281 293.835938 90.371094 302.09375 100.554688 302.09375 C 106.335938 302.09375 111.496094 299.429688 114.875 295.265625 L 137.359375 308.257812 C 137.183594 309.011719 137.078125 309.796875 137.078125 310.605469 C 137.078125 316.195312 141.609375 320.726562 147.203125 320.726562 C 152.792969 320.726562 157.328125 316.195312 157.328125 310.605469 C 157.328125 305.011719 152.792969 300.480469 147.203125 300.480469 C 144.511719 300.480469 142.070312 301.539062 140.257812 303.25 L 117.773438 290.257812 C 118.519531 288.320312 118.941406 286.222656 118.988281 284.03125 L 164.753906 277.71875 C 166.347656 281.21875 169.867188 283.652344 173.960938 283.652344 C 174.773438 283.652344 175.5625 283.546875 176.320312 283.367188 L 188.722656 304.753906 C 184.871094 307.890625 182.3125 312.550781 181.960938 317.820312 C 175.027344 317.199219 168.25 316.042969 161.664062 314.386719 C 161.148438 316.351562 160.242188 318.160156 159.03125 319.726562 C 166.671875 321.710938 174.515625 323.039062 182.5 323.679688 C 184.550781 331.628906 191.769531 337.5 200.359375 337.5 C 209.597656 337.5 217.25 330.703125 218.589844 321.839844 C 230.257812 319.691406 241.582031 316.042969 252.300781 310.957031 " fill-opacity="1" fill-rule="nonzero"/></g></svg>